<svg xmlns="http://www.w3.org/2000/svg" width="1040" height="560" viewBox="0 0 1040 560">
<rect width="100%" height="100%" fill="white"/>
<text x="78" y="32" font-family="Arial" font-size="22" font-weight="700">Quality vs Latency</text>
<line x1="78" y1="488" x2="760" y2="488" stroke="black" stroke-width="1.4"/>
<line x1="78" y1="58" x2="78" y2="488" stroke="black" stroke-width="1.4"/>
<text x="384.0" y="538" font-family="Arial" font-size="15">latency (s)</text>
<text x="18" y="310" transform="rotate(-90 18 310)" font-family="Arial" font-size="15">quality proxy</text>
<text x="800" y="72" font-family="Arial" font-size="14" font-weight="700">Legend</text>
<line x1="78.0" y1="488" x2="78.0" y2="493" stroke="black"/>
<text x="60.0" y="512" font-family="Arial" font-size="12">0.00</text>
<line x1="419.0" y1="58" x2="419.0" y2="488" stroke="lightgray" stroke-width="0.8"/>
<line x1="419.0" y1="488" x2="419.0" y2="493" stroke="black"/>
<text x="401.0" y="512" font-family="Arial" font-size="12">0.91</text>
<line x1="760.0" y1="58" x2="760.0" y2="488" stroke="lightgray" stroke-width="0.8"/>
<line x1="760.0" y1="488" x2="760.0" y2="493" stroke="black"/>
<text x="742.0" y="512" font-family="Arial" font-size="12">1.83</text>
<line x1="73" y1="488.0" x2="78" y2="488.0" stroke="black"/>
<text x="42" y="492.0" font-family="Arial" font-size="12">0.0</text>
<line x1="78" y1="273.0" x2="760" y2="273.0" stroke="lightgray" stroke-width="0.8"/>
<line x1="73" y1="273.0" x2="78" y2="273.0" stroke="black"/>
<text x="42" y="277.0" font-family="Arial" font-size="12">0.5</text>
<line x1="78" y1="58.0" x2="760" y2="58.0" stroke="lightgray" stroke-width="0.8"/>
<line x1="73" y1="58.0" x2="78" y2="58.0" stroke="black"/>
<text x="42" y="62.0" font-family="Arial" font-size="12">1.0</text>
<circle cx="808" cy="98" r="6" fill="black" stroke="black" stroke-width="1.2"/>
<text x="824" y="103" font-family="Arial" font-size="13">black baseline</text>
<circle cx="808" cy="126" r="6" fill="green" stroke="black" stroke-width="1.2"/>
<text x="824" y="131" font-family="Arial" font-size="13">moving square</text>
<circle cx="808" cy="154" r="6" fill="orange" stroke="black" stroke-width="1.2"/>
<text x="824" y="159" font-family="Arial" font-size="13">noise</text>
<circle cx="808" cy="182" r="6" fill="purple" stroke="black" stroke-width="1.2"/>
<text x="824" y="187" font-family="Arial" font-size="13">static frame</text>
<circle cx="808" cy="210" r="6" fill="gray" stroke="black" stroke-width="1.2"/>
<text x="824" y="215" font-family="Arial" font-size="13">white baseline</text>
<circle cx="808" cy="238" r="7" fill="white" stroke="black" stroke-width="2.5"/>
<text x="824" y="243" font-family="Arial" font-size="13">Pareto frontier</text>
<circle cx="808" cy="266" r="6" fill="white" stroke="black" stroke-width="1.5"/>
<line x1="803" y1="261" x2="813" y2="271" stroke="black" stroke-width="1.5"/>
<line x1="813" y1="261" x2="803" y2="271" stroke="black" stroke-width="1.5"/>
<text x="824" y="271" font-family="Arial" font-size="13">invalid run</text>
<circle cx="158.7" cy="488.0" r="5.5" fill="black" stroke="white" stroke-width="1.2" opacity="0.35"><title>black_fast_action_tiny_preview: quality 0.0, latency 0.216608s</title></circle>
<line x1="154.7" y1="484.0" x2="162.7" y2="492.0" stroke="black" stroke-width="1.4"/>
<line x1="162.7" y1="484.0" x2="154.7" y2="492.0" stroke="black" stroke-width="1.4"/>
<circle cx="360.3" cy="488.0" r="5.5" fill="black" stroke="white" stroke-width="1.2" opacity="0.35"><title>black_fast_action_short_preview: quality 0.0, latency 0.75728s</title></circle>
<line x1="356.3" y1="484.0" x2="364.3" y2="492.0" stroke="black" stroke-width="1.4"/>
<line x1="364.3" y1="484.0" x2="356.3" y2="492.0" stroke="black" stroke-width="1.4"/>
<circle cx="745.1" cy="488.0" r="5.5" fill="black" stroke="white" stroke-width="1.2" opacity="0.35"><title>black_fast_action_balanced_preview: quality 0.0, latency 1.789472s</title></circle>
<line x1="741.1" y1="484.0" x2="749.1" y2="492.0" stroke="black" stroke-width="1.4"/>
<line x1="749.1" y1="484.0" x2="741.1" y2="492.0" stroke="black" stroke-width="1.4"/>
<circle cx="158.7" cy="488.0" r="5.5" fill="black" stroke="white" stroke-width="1.2" opacity="0.35"><title>black_static_landscape_tiny_preview: quality 0.0, latency 0.216608s</title></circle>
<line x1="154.7" y1="484.0" x2="162.7" y2="492.0" stroke="black" stroke-width="1.4"/>
<line x1="162.7" y1="484.0" x2="154.7" y2="492.0" stroke="black" stroke-width="1.4"/>
<circle cx="360.3" cy="488.0" r="5.5" fill="black" stroke="white" stroke-width="1.2" opacity="0.35"><title>black_static_landscape_short_preview: quality 0.0, latency 0.75728s</title></circle>
<line x1="356.3" y1="484.0" x2="364.3" y2="492.0" stroke="black" stroke-width="1.4"/>
<line x1="364.3" y1="484.0" x2="356.3" y2="492.0" stroke="black" stroke-width="1.4"/>
<circle cx="745.1" cy="488.0" r="5.5" fill="black" stroke="white" stroke-width="1.2" opacity="0.35"><title>black_static_landscape_balanced_preview: quality 0.0, latency 1.789472s</title></circle>
<line x1="741.1" y1="484.0" x2="749.1" y2="492.0" stroke="black" stroke-width="1.4"/>
<line x1="749.1" y1="484.0" x2="741.1" y2="492.0" stroke="black" stroke-width="1.4"/>
<circle cx="158.7" cy="488.0" r="5.5" fill="black" stroke="white" stroke-width="1.2" opacity="0.35"><title>black_walking_person_tiny_preview: quality 0.0, latency 0.216608s</title></circle>
<line x1="154.7" y1="484.0" x2="162.7" y2="492.0" stroke="black" stroke-width="1.4"/>
<line x1="162.7" y1="484.0" x2="154.7" y2="492.0" stroke="black" stroke-width="1.4"/>
<circle cx="360.3" cy="488.0" r="5.5" fill="black" stroke="white" stroke-width="1.2" opacity="0.35"><title>black_walking_person_short_preview: quality 0.0, latency 0.75728s</title></circle>
<line x1="356.3" y1="484.0" x2="364.3" y2="492.0" stroke="black" stroke-width="1.4"/>
<line x1="364.3" y1="484.0" x2="356.3" y2="492.0" stroke="black" stroke-width="1.4"/>
<circle cx="745.1" cy="488.0" r="5.5" fill="black" stroke="white" stroke-width="1.2" opacity="0.35"><title>black_walking_person_balanced_preview: quality 0.0, latency 1.789472s</title></circle>
<line x1="741.1" y1="484.0" x2="749.1" y2="492.0" stroke="black" stroke-width="1.4"/>
<line x1="749.1" y1="484.0" x2="741.1" y2="492.0" stroke="black" stroke-width="1.4"/>
<circle cx="173.7" cy="280.9" r="7" fill="green" stroke="black" stroke-width="2.4" opacity="1.0"><title>moving_square_fast_action_tiny_preview: quality 0.4816, latency 0.256608s</title></circle>
<circle cx="375.2" cy="321.6" r="5.5" fill="green" stroke="white" stroke-width="1.2" opacity="1.0"><title>moving_square_fast_action_short_preview: quality 0.387, latency 0.79728s</title></circle>
<circle cx="760.0" cy="345.1" r="5.5" fill="green" stroke="white" stroke-width="1.2" opacity="1.0"><title>moving_square_fast_action_balanced_preview: quality 0.3324, latency 1.829472s</title></circle>
<circle cx="173.7" cy="280.9" r="7" fill="green" stroke="black" stroke-width="2.4" opacity="1.0"><title>moving_square_static_landscape_tiny_preview: quality 0.4816, latency 0.256608s</title></circle>
<circle cx="375.2" cy="321.6" r="5.5" fill="green" stroke="white" stroke-width="1.2" opacity="1.0"><title>moving_square_static_landscape_short_preview: quality 0.387, latency 0.79728s</title></circle>
<circle cx="760.0" cy="345.1" r="5.5" fill="green" stroke="white" stroke-width="1.2" opacity="1.0"><title>moving_square_static_landscape_balanced_preview: quality 0.3324, latency 1.829472s</title></circle>
<circle cx="173.7" cy="280.9" r="7" fill="green" stroke="black" stroke-width="2.4" opacity="1.0"><title>moving_square_walking_person_tiny_preview: quality 0.4816, latency 0.256608s</title></circle>
<circle cx="375.2" cy="321.6" r="5.5" fill="green" stroke="white" stroke-width="1.2" opacity="1.0"><title>moving_square_walking_person_short_preview: quality 0.387, latency 0.79728s</title></circle>
<circle cx="760.0" cy="345.1" r="5.5" fill="green" stroke="white" stroke-width="1.2" opacity="1.0"><title>moving_square_walking_person_balanced_preview: quality 0.3324, latency 1.829472s</title></circle>
<circle cx="166.2" cy="488.0" r="5.5" fill="orange" stroke="white" stroke-width="1.2" opacity="0.35"><title>noise_fast_action_tiny_preview: quality 0.0, latency 0.236608s</title></circle>
<line x1="162.2" y1="484.0" x2="170.2" y2="492.0" stroke="black" stroke-width="1.4"/>
<line x1="170.2" y1="484.0" x2="162.2" y2="492.0" stroke="black" stroke-width="1.4"/>
<circle cx="367.8" cy="488.0" r="5.5" fill="orange" stroke="white" stroke-width="1.2" opacity="0.35"><title>noise_fast_action_short_preview: quality 0.0, latency 0.77728s</title></circle>
<line x1="363.8" y1="484.0" x2="371.8" y2="492.0" stroke="black" stroke-width="1.4"/>
<line x1="371.8" y1="484.0" x2="363.8" y2="492.0" stroke="black" stroke-width="1.4"/>
<circle cx="752.5" cy="488.0" r="5.5" fill="orange" stroke="white" stroke-width="1.2" opacity="0.35"><title>noise_fast_action_balanced_preview: quality 0.0, latency 1.809472s</title></circle>
<line x1="748.5" y1="484.0" x2="756.5" y2="492.0" stroke="black" stroke-width="1.4"/>
<line x1="756.5" y1="484.0" x2="748.5" y2="492.0" stroke="black" stroke-width="1.4"/>
<circle cx="166.2" cy="488.0" r="5.5" fill="orange" stroke="white" stroke-width="1.2" opacity="0.35"><title>noise_static_landscape_tiny_preview: quality 0.0, latency 0.236608s</title></circle>
<line x1="162.2" y1="484.0" x2="170.2" y2="492.0" stroke="black" stroke-width="1.4"/>
<line x1="170.2" y1="484.0" x2="162.2" y2="492.0" stroke="black" stroke-width="1.4"/>
<circle cx="367.8" cy="488.0" r="5.5" fill="orange" stroke="white" stroke-width="1.2" opacity="0.35"><title>noise_static_landscape_short_preview: quality 0.0, latency 0.77728s</title></circle>
<line x1="363.8" y1="484.0" x2="371.8" y2="492.0" stroke="black" stroke-width="1.4"/>
<line x1="371.8" y1="484.0" x2="363.8" y2="492.0" stroke="black" stroke-width="1.4"/>
<circle cx="752.5" cy="488.0" r="5.5" fill="orange" stroke="white" stroke-width="1.2" opacity="0.35"><title>noise_static_landscape_balanced_preview: quality 0.0, latency 1.809472s</title></circle>
<line x1="748.5" y1="484.0" x2="756.5" y2="492.0" stroke="black" stroke-width="1.4"/>
<line x1="756.5" y1="484.0" x2="748.5" y2="492.0" stroke="black" stroke-width="1.4"/>
<circle cx="166.2" cy="488.0" r="5.5" fill="orange" stroke="white" stroke-width="1.2" opacity="0.35"><title>noise_walking_person_tiny_preview: quality 0.0, latency 0.236608s</title></circle>
<line x1="162.2" y1="484.0" x2="170.2" y2="492.0" stroke="black" stroke-width="1.4"/>
<line x1="170.2" y1="484.0" x2="162.2" y2="492.0" stroke="black" stroke-width="1.4"/>
<circle cx="367.8" cy="488.0" r="5.5" fill="orange" stroke="white" stroke-width="1.2" opacity="0.35"><title>noise_walking_person_short_preview: quality 0.0, latency 0.77728s</title></circle>
<line x1="363.8" y1="484.0" x2="371.8" y2="492.0" stroke="black" stroke-width="1.4"/>
<line x1="371.8" y1="484.0" x2="363.8" y2="492.0" stroke="black" stroke-width="1.4"/>
<circle cx="752.5" cy="488.0" r="5.5" fill="orange" stroke="white" stroke-width="1.2" opacity="0.35"><title>noise_walking_person_balanced_preview: quality 0.0, latency 1.809472s</title></circle>
<line x1="748.5" y1="484.0" x2="756.5" y2="492.0" stroke="black" stroke-width="1.4"/>
<line x1="756.5" y1="484.0" x2="748.5" y2="492.0" stroke="black" stroke-width="1.4"/>
<circle cx="162.5" cy="294.1" r="5.5" fill="purple" stroke="white" stroke-width="1.2" opacity="0.35"><title>static_frame_fast_action_tiny_preview: quality 0.4509, latency 0.226608s</title></circle>
<line x1="158.5" y1="290.1" x2="166.5" y2="298.1" stroke="black" stroke-width="1.4"/>
<line x1="166.5" y1="290.1" x2="158.5" y2="298.1" stroke="black" stroke-width="1.4"/>
<circle cx="364.0" cy="315.7" r="5.5" fill="purple" stroke="white" stroke-width="1.2" opacity="0.35"><title>static_frame_fast_action_short_preview: quality 0.4007, latency 0.76728s</title></circle>
<line x1="360.0" y1="311.7" x2="368.0" y2="319.7" stroke="black" stroke-width="1.4"/>
<line x1="368.0" y1="311.7" x2="360.0" y2="319.7" stroke="black" stroke-width="1.4"/>
<circle cx="748.8" cy="331.7" r="5.5" fill="purple" stroke="white" stroke-width="1.2" opacity="0.35"><title>static_frame_fast_action_balanced_preview: quality 0.3635, latency 1.799472s</title></circle>
<line x1="744.8" y1="327.7" x2="752.8" y2="335.7" stroke="black" stroke-width="1.4"/>
<line x1="752.8" y1="327.7" x2="744.8" y2="335.7" stroke="black" stroke-width="1.4"/>
<circle cx="162.5" cy="294.1" r="5.5" fill="purple" stroke="white" stroke-width="1.2" opacity="0.35"><title>static_frame_static_landscape_tiny_preview: quality 0.4509, latency 0.226608s</title></circle>
<line x1="158.5" y1="290.1" x2="166.5" y2="298.1" stroke="black" stroke-width="1.4"/>
<line x1="166.5" y1="290.1" x2="158.5" y2="298.1" stroke="black" stroke-width="1.4"/>
<circle cx="364.0" cy="315.7" r="5.5" fill="purple" stroke="white" stroke-width="1.2" opacity="0.35"><title>static_frame_static_landscape_short_preview: quality 0.4007, latency 0.76728s</title></circle>
<line x1="360.0" y1="311.7" x2="368.0" y2="319.7" stroke="black" stroke-width="1.4"/>
<line x1="368.0" y1="311.7" x2="360.0" y2="319.7" stroke="black" stroke-width="1.4"/>
<circle cx="748.8" cy="331.7" r="5.5" fill="purple" stroke="white" stroke-width="1.2" opacity="0.35"><title>static_frame_static_landscape_balanced_preview: quality 0.3635, latency 1.799472s</title></circle>
<line x1="744.8" y1="327.7" x2="752.8" y2="335.7" stroke="black" stroke-width="1.4"/>
<line x1="752.8" y1="327.7" x2="744.8" y2="335.7" stroke="black" stroke-width="1.4"/>
<circle cx="162.5" cy="294.1" r="5.5" fill="purple" stroke="white" stroke-width="1.2" opacity="0.35"><title>static_frame_walking_person_tiny_preview: quality 0.4509, latency 0.226608s</title></circle>
<line x1="158.5" y1="290.1" x2="166.5" y2="298.1" stroke="black" stroke-width="1.4"/>
<line x1="166.5" y1="290.1" x2="158.5" y2="298.1" stroke="black" stroke-width="1.4"/>
<circle cx="364.0" cy="315.7" r="5.5" fill="purple" stroke="white" stroke-width="1.2" opacity="0.35"><title>static_frame_walking_person_short_preview: quality 0.4007, latency 0.76728s</title></circle>
<line x1="360.0" y1="311.7" x2="368.0" y2="319.7" stroke="black" stroke-width="1.4"/>
<line x1="368.0" y1="311.7" x2="360.0" y2="319.7" stroke="black" stroke-width="1.4"/>
<circle cx="748.8" cy="331.7" r="5.5" fill="purple" stroke="white" stroke-width="1.2" opacity="0.35"><title>static_frame_walking_person_balanced_preview: quality 0.3635, latency 1.799472s</title></circle>
<line x1="744.8" y1="327.7" x2="752.8" y2="335.7" stroke="black" stroke-width="1.4"/>
<line x1="752.8" y1="327.7" x2="744.8" y2="335.7" stroke="black" stroke-width="1.4"/>
<circle cx="158.7" cy="488.0" r="5.5" fill="gray" stroke="white" stroke-width="1.2" opacity="0.35"><title>white_fast_action_tiny_preview: quality 0.0, latency 0.216608s</title></circle>
<line x1="154.7" y1="484.0" x2="162.7" y2="492.0" stroke="black" stroke-width="1.4"/>
<line x1="162.7" y1="484.0" x2="154.7" y2="492.0" stroke="black" stroke-width="1.4"/>
<circle cx="360.3" cy="488.0" r="5.5" fill="gray" stroke="white" stroke-width="1.2" opacity="0.35"><title>white_fast_action_short_preview: quality 0.0, latency 0.75728s</title></circle>
<line x1="356.3" y1="484.0" x2="364.3" y2="492.0" stroke="black" stroke-width="1.4"/>
<line x1="364.3" y1="484.0" x2="356.3" y2="492.0" stroke="black" stroke-width="1.4"/>
<circle cx="745.1" cy="488.0" r="5.5" fill="gray" stroke="white" stroke-width="1.2" opacity="0.35"><title>white_fast_action_balanced_preview: quality 0.0, latency 1.789472s</title></circle>
<line x1="741.1" y1="484.0" x2="749.1" y2="492.0" stroke="black" stroke-width="1.4"/>
<line x1="749.1" y1="484.0" x2="741.1" y2="492.0" stroke="black" stroke-width="1.4"/>
<circle cx="158.7" cy="488.0" r="5.5" fill="gray" stroke="white" stroke-width="1.2" opacity="0.35"><title>white_static_landscape_tiny_preview: quality 0.0, latency 0.216608s</title></circle>
<line x1="154.7" y1="484.0" x2="162.7" y2="492.0" stroke="black" stroke-width="1.4"/>
<line x1="162.7" y1="484.0" x2="154.7" y2="492.0" stroke="black" stroke-width="1.4"/>
<circle cx="360.3" cy="488.0" r="5.5" fill="gray" stroke="white" stroke-width="1.2" opacity="0.35"><title>white_static_landscape_short_preview: quality 0.0, latency 0.75728s</title></circle>
<line x1="356.3" y1="484.0" x2="364.3" y2="492.0" stroke="black" stroke-width="1.4"/>
<line x1="364.3" y1="484.0" x2="356.3" y2="492.0" stroke="black" stroke-width="1.4"/>
<circle cx="745.1" cy="488.0" r="5.5" fill="gray" stroke="white" stroke-width="1.2" opacity="0.35"><title>white_static_landscape_balanced_preview: quality 0.0, latency 1.789472s</title></circle>
<line x1="741.1" y1="484.0" x2="749.1" y2="492.0" stroke="black" stroke-width="1.4"/>
<line x1="749.1" y1="484.0" x2="741.1" y2="492.0" stroke="black" stroke-width="1.4"/>
<circle cx="158.7" cy="488.0" r="5.5" fill="gray" stroke="white" stroke-width="1.2" opacity="0.35"><title>white_walking_person_tiny_preview: quality 0.0, latency 0.216608s</title></circle>
<line x1="154.7" y1="484.0" x2="162.7" y2="492.0" stroke="black" stroke-width="1.4"/>
<line x1="162.7" y1="484.0" x2="154.7" y2="492.0" stroke="black" stroke-width="1.4"/>
<circle cx="360.3" cy="488.0" r="5.5" fill="gray" stroke="white" stroke-width="1.2" opacity="0.35"><title>white_walking_person_short_preview: quality 0.0, latency 0.75728s</title></circle>
<line x1="356.3" y1="484.0" x2="364.3" y2="492.0" stroke="black" stroke-width="1.4"/>
<line x1="364.3" y1="484.0" x2="356.3" y2="492.0" stroke="black" stroke-width="1.4"/>
<circle cx="745.1" cy="488.0" r="5.5" fill="gray" stroke="white" stroke-width="1.2" opacity="0.35"><title>white_walking_person_balanced_preview: quality 0.0, latency 1.789472s</title></circle>
<line x1="741.1" y1="484.0" x2="749.1" y2="492.0" stroke="black" stroke-width="1.4"/>
<line x1="749.1" y1="484.0" x2="741.1" y2="492.0" stroke="black" stroke-width="1.4"/>
</svg>